<svg width="185" height="185" viewBox="0 0 185 185" fill="none" xmlns="http://www.w3.org/2000/svg">
<path d="M76.5885 7.10193C78.9948 6.65784 81.3457 8.09699 82.0474 10.4363L82.0488 10.4361C83.7997 16.1854 86.5337 23.8724 90.5971 32.3319C96.0508 43.6496 104.283 53.1063 114.281 60.004C114.432 60.1081 114.574 60.2226 114.708 60.3449C124.611 67.0653 136.212 71.2916 148.545 72.3527C157.882 73.1455 166.029 72.9696 172.019 72.5636L172.018 72.5652C174.453 72.3895 176.637 74.0733 177.077 76.4826L177.113 76.7113C177.424 79.0363 176.001 81.2533 173.746 81.9345L173.747 81.9359C167.998 83.6989 160.311 86.4495 151.85 90.5314L151.85 90.53C129.2 101.492 113.972 123.57 111.773 148.636L111.632 150.374C110.984 158.991 111.149 166.508 111.519 172.128L111.517 172.127C111.688 174.555 110.009 176.732 107.606 177.177C105.195 177.622 102.846 176.179 102.145 173.843L102.144 173.844C100.393 168.095 97.6593 160.407 93.5957 151.947L93.5962 151.946C88.1427 140.629 79.9105 131.173 69.9125 124.275C69.7608 124.171 69.6177 124.056 69.4833 123.933C59.5795 117.213 47.9782 112.987 35.644 111.926C26.3094 111.134 18.1637 111.309 12.1733 111.715L12.1731 111.714C9.73952 111.889 7.55693 110.206 7.11643 107.797L7.11618 107.796C6.67741 105.391 8.11683 103.048 10.4464 102.344L10.4456 102.344C16.1943 100.581 23.8818 97.831 32.3427 93.7489C54.9924 82.7873 70.2198 60.7092 72.4197 35.6438L72.5612 33.9056C73.2093 25.288 73.0444 17.771 72.6743 12.151L72.677 12.1505C72.5076 9.72364 74.1841 7.54652 76.5871 7.10218L76.5885 7.10193Z" fill="#6BACF1" stroke="white" stroke-width="8" stroke-miterlimit="1.5" stroke-linecap="round" stroke-linejoin="round"/>
<path d="M83.384 105.22C83.2372 105.303 83.1115 105.355 83.0068 105.375C82.876 105.401 82.7244 105.39 82.552 105.342C81.6668 104.428 80.9563 103.643 80.4205 102.987C79.9056 102.3 79.0347 101.112 77.8077 99.4225C76.4357 97.4084 74.6254 94.5425 72.3768 90.8249C70.1282 87.1074 68.9169 84.8037 68.7429 83.9139C68.6969 83.6783 68.7159 83.498 68.8001 83.3728C68.8792 83.2215 68.9973 83.1305 69.1543 83.0998C69.2852 83.0742 69.395 83.0799 69.4837 83.1169C69.8336 83.2387 70.51 84.0574 71.5128 85.5731C72.5368 87.0575 73.981 89.3021 75.8457 92.3068C78.9048 97.2516 81.274 100.891 82.9533 103.226C83.4216 102.563 83.9156 100.782 84.4353 97.8819C84.9499 94.9554 85.3166 91.759 85.5354 88.2925C85.7804 84.821 85.7562 81.9184 85.4629 79.5846C86.599 79.2809 87.2644 79.6263 87.4588 80.6208C87.7864 82.2957 87.8271 85.005 87.5809 88.7485C87.3348 92.4919 86.8386 95.999 86.0924 99.2697C85.3411 102.514 84.4383 104.498 83.384 105.22ZM91.4495 98.7927C91.7596 98.4332 92.0848 98.2202 92.425 98.1536C92.7391 98.0922 93.0579 98.125 93.3816 98.2519C93.7315 98.3736 94.0916 98.5478 94.462 98.7742C94.8272 98.9745 95.1142 99.1222 95.323 99.2172C96.017 99.5706 96.9131 99.7758 98.0111 99.8328C99.1091 99.8898 100.247 99.8031 101.425 99.5728C102.759 99.3118 103.902 98.8304 104.851 98.1284C105.822 97.3952 106.223 96.5967 106.054 95.7331C105.9 94.9479 105.492 94.3892 104.829 94.0569C104.161 93.6984 103.401 93.4938 102.549 93.4431C101.697 93.3924 100.586 93.4059 99.215 93.4837C97.3683 93.6275 95.8777 93.6472 94.7432 93.543C93.635 93.4337 92.6977 93.0871 91.9314 92.5033C91.1601 91.8934 90.6464 90.9341 90.3905 89.6256C90.1142 88.2123 90.5768 87.035 91.7785 86.0935C92.975 85.1259 94.4369 84.4732 96.1642 84.1354C97.7345 83.8284 99.1357 83.9076 100.368 84.3731C101.621 84.8073 102.381 85.6369 102.648 86.8618C102.838 87.5582 102.844 88.1413 102.664 88.6112C102.479 89.055 102.203 89.3127 101.837 89.3843C101.628 89.4253 101.429 89.3826 101.241 89.2563C101.08 89.1248 100.973 88.9282 100.922 88.6665C100.84 88.2478 100.895 87.7617 101.085 87.2081C100.832 86.6056 100.308 86.219 99.5136 86.0482C98.7455 85.8723 97.8643 85.8816 96.8698 86.0761C95.4042 86.3627 94.2933 86.8652 93.5372 87.5837C92.7759 88.276 92.4669 88.9886 92.6102 89.7214C92.7637 90.5065 93.1955 91.047 93.9054 91.3429C94.6154 91.6388 95.4332 91.7914 96.3589 91.8006C97.3056 91.7785 98.6317 91.6822 100.337 91.5117C101.76 91.4236 102.929 91.426 103.844 91.5188C104.785 91.6065 105.631 91.971 106.381 92.6123C107.126 93.2274 107.634 94.2284 107.906 95.6155C108.187 97.0549 107.742 98.3238 106.571 99.4223C105.395 100.495 103.878 101.212 102.02 101.576C99.6386 102.042 97.4263 102.053 95.3833 101.61C93.3666 101.162 92.0553 100.223 91.4495 98.7927ZM113.467 99.2966C112.996 99.3887 112.536 99.2612 112.088 98.9141C111.661 98.5358 111.286 98.0792 110.964 97.5444C110.663 96.9782 110.472 96.4858 110.39 96.0671C110.226 95.2296 110.208 94.5131 110.337 93.9174C110.486 93.2905 110.707 92.826 111.001 92.5239C111.29 92.1957 111.579 92.0034 111.867 91.9471C112.783 91.768 113.603 92.0696 114.326 92.8519C115.045 93.6081 115.501 94.4834 115.696 95.4779C115.772 95.8705 115.705 96.3592 115.493 96.944C115.308 97.5237 115.028 98.0403 114.655 98.4937C114.282 98.9471 113.886 99.2147 113.467 99.2966Z" fill="white"/>
</svg>
